<svg width="545" height="256" viewBox="0 0 545 256" fill="none" xmlns="http://www.w3.org/2000/svg">
<rect width="545" height="256" fill="white"/>
<g clip-path="url(#clip0_53_178)">
<path d="M27.9558 231.585H46.2824C53.9427 231.585 58.2092 227.222 58.2092 219.658V55.8833C58.2092 48.223 53.9427 43.8595 46.2824 43.8595H27.9558C20.1986 43.8595 16.0291 48.223 16.0291 55.8833V219.658C16.0291 227.222 20.1986 231.585 27.9558 231.585ZM81.4809 231.585H120.752C128.51 231.585 132.679 227.222 132.679 219.658V88.9484C132.679 81.3853 128.51 77.0218 120.752 77.0218H81.4809C73.7237 77.0218 69.4572 81.3853 69.4572 88.9484V219.658C69.4572 227.222 73.7237 231.585 81.4809 231.585ZM90.6929 111.639C87.2017 111.639 84.5837 109.021 84.5837 105.627C84.5837 102.33 87.2017 99.7117 90.6929 99.7117H111.734C115.128 99.7117 117.649 102.33 117.649 105.627C117.649 109.021 115.128 111.639 111.734 111.639H90.6929ZM90.6929 208.992C87.2017 208.992 84.5837 206.374 84.5837 202.98C84.5837 199.684 87.2017 197.065 90.6929 197.065H111.734C115.128 197.065 117.649 199.684 117.649 202.98C117.649 206.374 115.128 208.992 111.734 208.992H90.6929ZM155.951 231.585H179.901C187.658 231.585 191.828 227.222 191.828 219.658V29.0238C191.828 21.3635 187.658 17 179.901 17H155.951C148.193 17 144.024 21.3635 144.024 29.0238V219.658C144.024 227.222 148.193 231.585 155.951 231.585ZM221.887 232.07L237.499 229.84C245.062 228.87 248.747 224.216 247.874 216.556L229.354 55.6894C228.481 48.126 223.924 44.1504 216.167 45.2171L200.652 47.4473C192.992 48.4169 189.307 53.0713 190.18 60.6346L208.797 221.501C209.67 229.064 214.227 233.04 221.887 232.07Z" fill="#2268A2"/>
</g>
<g clip-path="url(#clip1_53_178)">
<path d="M524.387 67.3161V205.19C524.387 224.568 514.742 234.211 495.636 234.211H430.823C446.614 232.001 463.022 228.724 481.353 223.64C500.181 218.263 508.806 206.209 508.806 184.606V48.8649C508.806 45.7191 508.566 42.7511 508.076 39.9941C518.925 43.6117 524.387 52.7337 524.387 67.3161Z" fill="#B8C4CE"/>
<path d="M356.613 202.314C356.613 218.447 366.63 226.792 383.787 225.772C414.949 224.103 442.494 221.229 477.922 211.493C491.092 207.784 496.193 200.83 496.193 184.604V48.8634C496.193 30.4123 486.269 21.4186 468.462 25.5909C442.494 31.4322 414.949 36.0682 381.561 38.0153C366.537 38.9425 356.613 47.4727 356.613 64.2549V202.314ZM371.545 199.625V63.8839C371.545 56.0955 376.368 53.0358 383.324 52.6649C415.227 50.996 442.216 46.36 467.628 40.6114C476.253 38.6643 481.261 43.1148 481.261 51.4596V184.048C481.261 192.578 478.386 196.38 471.245 198.234C442.216 206.301 415.227 209.267 384.436 210.844C376.368 211.214 371.545 207.135 371.545 199.625Z" fill="#B8C4CE"/>
<path d="M391.948 85.4881C418.195 83.8189 439.341 80.2028 460.95 75.3815C465.216 74.4542 466.236 72.3217 466.236 69.7256C466.236 66.8513 464.011 64.3478 459.929 65.1823C439.341 69.7256 418.195 73.4343 391.948 75.1033C388.239 75.3815 386.569 77.607 386.569 80.4813C386.569 83.448 388.795 85.6735 391.948 85.4881ZM391.948 115.344C418.195 113.675 439.341 109.966 460.95 105.237C465.216 104.31 466.236 102.177 466.236 99.581C466.236 96.7067 464.011 94.2033 459.929 95.0382C439.341 99.581 418.195 103.29 391.948 104.959C388.239 105.237 386.569 107.462 386.569 110.244C386.569 113.211 388.795 115.529 391.948 115.344ZM391.948 145.199C418.195 143.53 439.341 139.822 460.95 135.093C465.216 134.165 466.236 132.033 466.236 129.437C466.236 126.562 464.011 124.059 459.929 124.894C439.341 129.437 418.195 133.146 391.948 134.814C388.239 135.093 386.569 137.318 386.569 140.099C386.569 143.066 388.795 145.385 391.948 145.199ZM391.948 174.962C407.159 174.128 417.268 172.644 427.284 171.068C430.344 170.511 432.014 168.101 432.014 165.69C432.014 162.908 429.788 160.219 425.614 160.961C416.711 162.352 406.88 163.743 391.948 164.577C388.239 164.855 386.569 167.081 386.569 169.862C386.569 172.829 388.795 175.147 391.948 174.962Z" fill="#B8C4CE"/>
</g>
<defs>
<clipPath id="clip0_53_178">
<rect width="232" height="221.373" fill="white" transform="translate(16 17)"/>
</clipPath>
<clipPath id="clip1_53_178">
<rect width="193" height="232" fill="white" transform="translate(344 12)"/>
</clipPath>
</defs>
</svg>
