<svg width="256" height="256" viewBox="0 0 256 256" fill="none" xmlns="http://www.w3.org/2000/svg">
<rect width="256" height="256" fill="white"/>
<g clip-path="url(#clip0_52_175)">
<path d="M23.9558 231.585H42.2824C49.9427 231.585 54.2092 227.222 54.2092 219.658V55.8833C54.2092 48.223 49.9427 43.8595 42.2824 43.8595H23.9558C16.1986 43.8595 12.0291 48.223 12.0291 55.8833V219.658C12.0291 227.222 16.1986 231.585 23.9558 231.585ZM77.4809 231.585H116.752C124.51 231.585 128.679 227.222 128.679 219.658V88.9484C128.679 81.3853 124.51 77.0218 116.752 77.0218H77.4809C69.7237 77.0218 65.4572 81.3853 65.4572 88.9484V219.658C65.4572 227.222 69.7237 231.585 77.4809 231.585ZM86.6929 111.639C83.2017 111.639 80.5837 109.021 80.5837 105.627C80.5837 102.33 83.2017 99.7117 86.6929 99.7117H107.734C111.128 99.7117 113.649 102.33 113.649 105.627C113.649 109.021 111.128 111.639 107.734 111.639H86.6929ZM86.6929 208.992C83.2017 208.992 80.5837 206.374 80.5837 202.98C80.5837 199.684 83.2017 197.065 86.6929 197.065H107.734C111.128 197.065 113.649 199.684 113.649 202.98C113.649 206.374 111.128 208.992 107.734 208.992H86.6929ZM151.951 231.585H175.901C183.658 231.585 187.828 227.222 187.828 219.658V29.0238C187.828 21.3635 183.658 17 175.901 17H151.951C144.193 17 140.024 21.3635 140.024 29.0238V219.658C140.024 227.222 144.193 231.585 151.951 231.585ZM217.887 232.07L233.499 229.84C241.062 228.87 244.747 224.216 243.874 216.556L225.354 55.6894C224.481 48.126 219.924 44.1504 212.167 45.2171L196.652 47.4473C188.992 48.4169 185.307 53.0713 186.18 60.6346L204.797 221.501C205.67 229.064 210.227 233.04 217.887 232.07Z" fill="#222934"/>
</g>
<defs>
<clipPath id="clip0_52_175">
<rect width="232" height="221.373" fill="white" transform="translate(12 17)"/>
</clipPath>
</defs>
</svg>
