<svg width="256" height="256" viewBox="0 0 256 256" fill="none" xmlns="http://www.w3.org/2000/svg">
<rect width="256" height="256" fill="white"/>
<path d="M12 210.182C12 224.641 18.9478 231.777 33.4067 231.777H161.659C176.024 231.777 183.066 224.641 183.066 210.182V45.6884C183.066 31.2295 176.024 24 161.659 24H143.257C128.892 24 121.85 31.2295 121.85 45.6884V82.9624C119.785 82.4929 117.343 82.1173 114.715 82.1173H73.779C71.0563 82.1173 68.709 82.4929 66.5495 82.9624V71.6957C66.5495 57.2368 59.6018 50.0073 45.2368 50.0073H33.4067C18.9478 50.0073 12 57.2368 12 71.6957V210.182ZM26.1772 209.056V72.7284C26.1772 67.189 29.0878 64.1845 34.9089 64.1845H43.7345C49.5557 64.1845 52.3723 67.189 52.3723 72.7284V217.599H34.9089C29.0878 217.599 26.1772 214.595 26.1772 209.056ZM66.5495 217.599V104.838C66.5495 99.2987 69.4601 96.2946 75.2813 96.2946H113.212C119.033 96.2946 121.85 99.2987 121.85 104.838V217.599H66.5495ZM136.028 217.599V46.7211C136.028 41.1817 138.938 38.1772 144.759 38.1772H160.157C166.072 38.1772 168.888 41.1817 168.888 46.7211V209.056C168.888 214.595 166.072 217.599 160.157 217.599H136.028ZM75.0935 114.509C75.0935 117.795 77.5345 120.33 81.0085 120.33H107.673C110.959 120.33 113.494 117.795 113.494 114.509C113.494 111.317 110.959 108.782 107.673 108.782H81.0085C77.5345 108.782 75.0935 111.317 75.0935 114.509ZM75.0935 199.385C75.0935 202.671 77.5345 205.206 81.0085 205.206H107.673C110.959 205.206 113.494 202.671 113.494 199.385C113.494 196.192 110.959 193.657 107.673 193.657H81.0085C77.5345 193.657 75.0935 196.192 75.0935 199.385ZM191.516 212.811C193.3 227.082 200.905 233.748 215.27 231.777L225.034 230.462C239.399 228.49 245.315 220.886 243.718 206.614L227.569 66.2501C225.879 51.9789 218.181 45.219 203.816 47.2845L194.051 48.5989C179.592 50.6645 173.583 58.1756 175.273 72.4467L191.516 212.811ZM205.412 209.995L189.544 71.8834C188.887 66.344 191.422 63.2457 197.243 62.4006L204.003 61.5557C209.825 60.7106 213.017 63.5273 213.673 68.9729L229.541 207.084C230.198 212.717 227.663 215.721 221.936 216.566L214.988 217.505C209.261 218.351 206.069 215.628 205.412 209.995Z" fill="#222934"/>
</svg>
