<svg width="513" height="256" viewBox="0 0 513 256" fill="none" xmlns="http://www.w3.org/2000/svg">
<rect width="513" height="256" fill="white"/>
<g clip-path="url(#clip0_53_178)">
<path d="M23.9558 231.585H42.2824C49.9427 231.585 54.2092 227.222 54.2092 219.658V55.8833C54.2092 48.223 49.9427 43.8595 42.2824 43.8595H23.9558C16.1986 43.8595 12.0291 48.223 12.0291 55.8833V219.658C12.0291 227.222 16.1986 231.585 23.9558 231.585ZM77.4809 231.585H116.752C124.51 231.585 128.679 227.222 128.679 219.658V88.9484C128.679 81.3853 124.51 77.0218 116.752 77.0218H77.4809C69.7237 77.0218 65.4572 81.3853 65.4572 88.9484V219.658C65.4572 227.222 69.7237 231.585 77.4809 231.585ZM86.6929 111.639C83.2017 111.639 80.5837 109.021 80.5837 105.627C80.5837 102.33 83.2017 99.7117 86.6929 99.7117H107.734C111.128 99.7117 113.649 102.33 113.649 105.627C113.649 109.021 111.128 111.639 107.734 111.639H86.6929ZM86.6929 208.992C83.2017 208.992 80.5837 206.374 80.5837 202.98C80.5837 199.684 83.2017 197.065 86.6929 197.065H107.734C111.128 197.065 113.649 199.684 113.649 202.98C113.649 206.374 111.128 208.992 107.734 208.992H86.6929ZM151.951 231.585H175.901C183.658 231.585 187.828 227.222 187.828 219.658V29.0238C187.828 21.3635 183.658 17 175.901 17H151.951C144.193 17 140.024 21.3635 140.024 29.0238V219.658C140.024 227.222 144.193 231.585 151.951 231.585ZM217.887 232.07L233.499 229.84C241.062 228.87 244.747 224.216 243.874 216.556L225.354 55.6894C224.481 48.126 219.924 44.1504 212.167 45.2171L196.652 47.4473C188.992 48.4169 185.307 53.0713 186.18 60.6346L204.797 221.501C205.67 229.064 210.227 233.04 217.887 232.07Z" fill="#2268A2"/>
</g>
<g clip-path="url(#clip1_53_178)">
<path d="M488.387 67.3161V205.19C488.387 224.568 478.742 234.211 459.636 234.211H394.823C410.614 232.001 427.022 228.724 445.353 223.64C464.181 218.263 472.806 206.209 472.806 184.606V48.8649C472.806 45.7191 472.566 42.7511 472.076 39.9941C482.925 43.6117 488.387 52.7337 488.387 67.3161Z" fill="#B8C4CE"/>
<path d="M320.613 202.314C320.613 218.447 330.63 226.792 347.787 225.772C378.949 224.103 406.494 221.229 441.922 211.493C455.092 207.784 460.193 200.83 460.193 184.604V48.8634C460.193 30.4123 450.269 21.4186 432.462 25.5909C406.494 31.4322 378.949 36.0682 345.561 38.0153C330.537 38.9425 320.613 47.4727 320.613 64.2549V202.314ZM335.545 199.625V63.8839C335.545 56.0955 340.368 53.0358 347.324 52.6649C379.227 50.996 406.216 46.36 431.628 40.6114C440.253 38.6643 445.261 43.1148 445.261 51.4596V184.048C445.261 192.578 442.386 196.38 435.245 198.234C406.216 206.301 379.227 209.267 348.436 210.844C340.368 211.214 335.545 207.135 335.545 199.625Z" fill="#B8C4CE"/>
<path d="M355.948 85.4881C382.195 83.8189 403.341 80.2028 424.95 75.3815C429.216 74.4542 430.236 72.3217 430.236 69.7256C430.236 66.8513 428.011 64.3478 423.929 65.1823C403.341 69.7256 382.195 73.4343 355.948 75.1033C352.239 75.3815 350.569 77.607 350.569 80.4813C350.569 83.448 352.795 85.6735 355.948 85.4881ZM355.948 115.344C382.195 113.675 403.341 109.966 424.95 105.237C429.216 104.31 430.236 102.177 430.236 99.581C430.236 96.7067 428.011 94.2033 423.929 95.0382C403.341 99.581 382.195 103.29 355.948 104.959C352.239 105.237 350.569 107.462 350.569 110.244C350.569 113.211 352.795 115.529 355.948 115.344ZM355.948 145.199C382.195 143.53 403.341 139.822 424.95 135.093C429.216 134.165 430.236 132.033 430.236 129.437C430.236 126.562 428.011 124.059 423.929 124.894C403.341 129.437 382.195 133.146 355.948 134.814C352.239 135.093 350.569 137.318 350.569 140.099C350.569 143.066 352.795 145.385 355.948 145.199ZM355.948 174.962C371.159 174.128 381.268 172.644 391.284 171.068C394.344 170.511 396.014 168.101 396.014 165.69C396.014 162.908 393.788 160.219 389.614 160.961C380.711 162.352 370.88 163.743 355.948 164.577C352.239 164.855 350.569 167.081 350.569 169.862C350.569 172.829 352.795 175.147 355.948 174.962Z" fill="#8795A7"/>
</g>
<defs>
<clipPath id="clip0_53_178">
<rect width="232" height="221.373" fill="white" transform="translate(12 17)"/>
</clipPath>
<clipPath id="clip1_53_178">
<rect width="193" height="232" fill="white" transform="translate(308 12)"/>
</clipPath>
</defs>
</svg>
