<svg width="305" height="305" viewBox="0 0 305 305" fill="none" xmlns="http://www.w3.org/2000/svg">
<path d="M223.262 153.148C223.262 156.811 221.944 160.033 219.16 162.816L102.998 276.342C100.508 278.979 97.285 280.297 93.477 280.297C85.86 280.297 80 274.584 80 266.967C80 263.158 81.612 259.936 83.955 257.445L190.596 153.148L83.955 48.8516C81.612 46.3613 80 42.9922 80 39.3301C80 31.7129 85.86 26 93.477 26C97.285 26 100.508 27.3184 102.998 29.8086L219.16 143.48C221.944 146.117 223.262 149.486 223.262 153.148Z" fill="#222934"/>
</svg>
