<svg width="256" height="256" viewBox="0 0 256 256" fill="none" xmlns="http://www.w3.org/2000/svg">
<rect width="256" height="256" fill="white"/>
<g clip-path="url(#clip0_52_124)">
<path d="M212.387 67.3292V205.239C212.387 224.623 202.742 234.268 183.636 234.268H118.823C134.614 232.058 151.022 228.78 169.353 223.695C188.181 218.316 196.806 206.259 196.806 184.65V48.8731C196.806 45.7265 196.566 42.7577 196.076 40C206.925 43.6185 212.387 52.7429 212.387 67.3292Z" fill="#222934"/>
<path d="M184.193 48.8738V184.65C184.193 200.881 179.092 207.837 165.922 211.547C130.494 221.285 102.949 224.16 71.7872 225.829C54.6296 226.849 44.6133 218.502 44.6133 202.365V64.2693C44.6133 47.4826 54.5369 38.9502 69.5614 38.0228C102.949 36.0751 130.494 31.438 156.462 25.5951C174.269 21.4216 184.193 30.4178 184.193 48.8738ZM113.615 162.207C104.433 163.691 94.324 165.082 78.9285 165.917C75.0333 166.288 73.3638 168.513 73.3638 171.481C73.3638 174.542 75.5897 176.953 78.9285 176.767C94.6022 175.84 104.989 174.356 115.377 172.687C118.53 172.13 120.2 169.626 120.2 167.122C120.2 164.247 117.881 161.465 113.615 162.207ZM148.95 125.016C127.712 129.747 106.01 133.549 78.9285 135.311C75.0333 135.589 73.3638 137.908 73.3638 140.783C73.3638 143.843 75.5897 146.255 78.9285 146.069C106.01 144.307 127.712 140.505 149.97 135.589C154.422 134.662 155.442 132.436 155.442 129.747C155.442 126.778 153.216 124.182 148.95 125.016ZM148.95 94.2254C127.712 98.9555 106.01 102.758 78.9285 104.52C75.0333 104.798 73.3638 107.117 73.3638 109.992C73.3638 113.053 75.5897 115.464 78.9285 115.278C106.01 113.516 127.712 109.714 149.97 104.798C154.422 103.871 155.442 101.645 155.442 98.9555C155.442 95.9874 153.216 93.3909 148.95 94.2254ZM148.95 63.5273C127.712 68.1645 106.01 71.967 78.9285 73.7292C75.0333 74.0074 73.3638 76.3261 73.3638 79.2936C73.3638 82.3542 75.5897 84.6727 78.9285 84.4872C106.01 82.7252 127.712 79.0157 149.97 74.0074C154.422 73.08 155.442 70.8541 155.442 68.1645C155.442 65.1967 153.216 62.5999 148.95 63.5273Z" fill="#222934"/>
</g>
<defs>
<clipPath id="clip0_52_124">
<rect width="193" height="232.062" fill="white" transform="translate(32 12)"/>
</clipPath>
</defs>
</svg>
