<svg width="545" height="256" viewBox="0 0 545 256" fill="none" xmlns="http://www.w3.org/2000/svg">
<rect width="545" height="256" fill="white"/>
<path d="M16 210.182C16 224.641 22.9478 231.777 37.4067 231.777H165.659C180.024 231.777 187.066 224.641 187.066 210.182V45.6884C187.066 31.2295 180.024 24 165.659 24H147.257C132.892 24 125.85 31.2295 125.85 45.6884V82.9624C123.785 82.4929 121.343 82.1173 118.715 82.1173H77.779C75.0563 82.1173 72.709 82.4929 70.5495 82.9624V71.6957C70.5495 57.2368 63.6018 50.0073 49.2368 50.0073H37.4067C22.9478 50.0073 16 57.2368 16 71.6957V210.182ZM30.1772 209.056V72.7284C30.1772 67.189 33.0878 64.1845 38.9089 64.1845H47.7345C53.5557 64.1845 56.3723 67.189 56.3723 72.7284V217.599H38.9089C33.0878 217.599 30.1772 214.595 30.1772 209.056ZM70.5495 217.599V104.838C70.5495 99.2987 73.4601 96.2946 79.2813 96.2946H117.212C123.033 96.2946 125.85 99.2987 125.85 104.838V217.599H70.5495ZM140.028 217.599V46.7211C140.028 41.1817 142.938 38.1772 148.759 38.1772H164.157C170.072 38.1772 172.888 41.1817 172.888 46.7211V209.056C172.888 214.595 170.072 217.599 164.157 217.599H140.028ZM79.0935 114.509C79.0935 117.795 81.5345 120.33 85.0085 120.33H111.673C114.959 120.33 117.494 117.795 117.494 114.509C117.494 111.317 114.959 108.782 111.673 108.782H85.0085C81.5345 108.782 79.0935 111.317 79.0935 114.509ZM79.0935 199.385C79.0935 202.671 81.5345 205.206 85.0085 205.206H111.673C114.959 205.206 117.494 202.671 117.494 199.385C117.494 196.192 114.959 193.657 111.673 193.657H85.0085C81.5345 193.657 79.0935 196.192 79.0935 199.385ZM195.516 212.811C197.3 227.082 204.905 233.748 219.27 231.777L229.034 230.462C243.399 228.49 249.315 220.886 247.718 206.614L231.569 66.2501C229.879 51.9789 222.181 45.219 207.816 47.2845L198.051 48.5989C183.592 50.6645 177.583 58.1756 179.273 72.4467L195.516 212.811ZM209.412 209.995L193.544 71.8834C192.887 66.344 195.422 63.2457 201.243 62.4006L208.003 61.5557C213.825 60.7106 217.017 63.5273 217.673 68.9729L233.541 207.084C234.198 212.717 231.663 215.721 225.936 216.566L218.988 217.505C213.261 218.351 210.069 215.628 209.412 209.995Z" fill="#B8C4CE"/>
<g clip-path="url(#clip0_53_231)">
<path d="M524.358 67.3292V205.239C524.358 224.623 514.713 234.268 495.608 234.268H430.794C446.586 232.058 462.993 228.78 481.325 223.695C500.152 218.316 508.777 206.259 508.777 184.65V48.8731C508.777 45.7265 508.537 42.7577 508.047 40C518.896 43.6185 524.358 52.7429 524.358 67.3292Z" fill="#2268A2"/>
<path d="M496.164 48.8738V184.65C496.164 200.881 491.063 207.837 477.893 211.547C442.465 221.285 414.921 224.16 383.759 225.829C366.601 226.849 356.585 218.502 356.585 202.365V64.2693C356.585 47.4826 366.508 38.9502 381.533 38.0228C414.921 36.0751 442.465 31.438 468.434 25.5951C486.241 21.4216 496.164 30.4178 496.164 48.8738ZM425.586 162.207C416.404 163.691 406.295 165.082 390.9 165.917C387.005 166.288 385.335 168.513 385.335 171.481C385.335 174.542 387.561 176.953 390.9 176.767C406.574 175.84 416.961 174.356 427.348 172.687C430.502 172.13 432.171 169.626 432.171 167.122C432.171 164.247 429.853 161.465 425.586 162.207ZM460.922 125.016C439.683 129.747 417.981 133.549 390.9 135.311C387.005 135.589 385.335 137.908 385.335 140.783C385.335 143.843 387.561 146.255 390.9 146.069C417.981 144.307 439.683 140.505 461.942 135.589C466.393 134.662 467.414 132.436 467.414 129.747C467.414 126.778 465.188 124.182 460.922 125.016ZM460.922 94.2254C439.683 98.9555 417.981 102.758 390.9 104.52C387.005 104.798 385.335 107.117 385.335 109.992C385.335 113.053 387.561 115.464 390.9 115.278C417.981 113.516 439.683 109.714 461.942 104.798C466.393 103.871 467.414 101.645 467.414 98.9555C467.414 95.9874 465.188 93.3909 460.922 94.2254ZM460.922 63.5273C439.683 68.1645 417.981 71.967 390.9 73.7292C387.005 74.0074 385.335 76.3261 385.335 79.2936C385.335 82.3542 387.561 84.6727 390.9 84.4872C417.981 82.7252 439.683 79.0157 461.942 74.0074C466.393 73.08 467.414 70.8541 467.414 68.1645C467.414 65.1967 465.188 62.5999 460.922 63.5273Z" fill="#2268A2"/>
</g>
<defs>
<clipPath id="clip0_53_231">
<rect width="193" height="232.062" fill="white" transform="translate(343.971 12)"/>
</clipPath>
</defs>
</svg>
