<svg width="513" height="256" viewBox="0 0 513 256" fill="none" xmlns="http://www.w3.org/2000/svg">
<rect width="513" height="256" fill="white"/>
<path d="M12 210.182C12 224.641 18.9478 231.777 33.4067 231.777H161.659C176.024 231.777 183.066 224.641 183.066 210.182V45.6884C183.066 31.2295 176.024 24 161.659 24H143.257C128.892 24 121.85 31.2295 121.85 45.6884V82.9624C119.785 82.4929 117.343 82.1173 114.715 82.1173H73.779C71.0563 82.1173 68.709 82.4929 66.5495 82.9624V71.6957C66.5495 57.2368 59.6018 50.0073 45.2368 50.0073H33.4067C18.9478 50.0073 12 57.2368 12 71.6957V210.182ZM26.1772 209.056V72.7284C26.1772 67.189 29.0878 64.1845 34.9089 64.1845H43.7345C49.5557 64.1845 52.3723 67.189 52.3723 72.7284V217.599H34.9089C29.0878 217.599 26.1772 214.595 26.1772 209.056ZM66.5495 217.599V104.838C66.5495 99.2987 69.4601 96.2946 75.2813 96.2946H113.212C119.033 96.2946 121.85 99.2987 121.85 104.838V217.599H66.5495ZM136.028 217.599V46.7211C136.028 41.1817 138.938 38.1772 144.759 38.1772H160.157C166.072 38.1772 168.888 41.1817 168.888 46.7211V209.056C168.888 214.595 166.072 217.599 160.157 217.599H136.028ZM75.0935 114.509C75.0935 117.795 77.5345 120.33 81.0085 120.33H107.673C110.959 120.33 113.494 117.795 113.494 114.509C113.494 111.317 110.959 108.782 107.673 108.782H81.0085C77.5345 108.782 75.0935 111.317 75.0935 114.509ZM75.0935 199.385C75.0935 202.671 77.5345 205.206 81.0085 205.206H107.673C110.959 205.206 113.494 202.671 113.494 199.385C113.494 196.192 110.959 193.657 107.673 193.657H81.0085C77.5345 193.657 75.0935 196.192 75.0935 199.385ZM191.516 212.811C193.3 227.082 200.905 233.748 215.27 231.777L225.034 230.462C239.399 228.49 245.315 220.886 243.718 206.614L227.569 66.2501C225.879 51.9789 218.181 45.219 203.816 47.2845L194.051 48.5989C179.592 50.6645 173.583 58.1756 175.273 72.4467L191.516 212.811ZM205.412 209.995L189.544 71.8834C188.887 66.344 191.422 63.2457 197.243 62.4006L204.003 61.5557C209.825 60.7106 213.017 63.5273 213.673 68.9729L229.541 207.084C230.198 212.717 227.663 215.721 221.936 216.566L214.988 217.505C209.261 218.351 206.069 215.628 205.412 209.995Z" fill="#B8C4CE"/>
<g clip-path="url(#clip0_53_231)">
<path d="M488.358 67.3292V205.239C488.358 224.623 478.713 234.268 459.608 234.268H394.794C410.586 232.058 426.993 228.78 445.325 223.695C464.152 218.316 472.777 206.259 472.777 184.65V48.8731C472.777 45.7265 472.537 42.7577 472.047 40C482.896 43.6185 488.358 52.7429 488.358 67.3292Z" fill="#2268A2"/>
<path d="M460.164 48.8738V184.65C460.164 200.881 455.063 207.837 441.893 211.547C406.465 221.285 378.921 224.16 347.759 225.829C330.601 226.849 320.585 218.502 320.585 202.365V64.2693C320.585 47.4826 330.508 38.9502 345.533 38.0228C378.921 36.0751 406.465 31.438 432.434 25.5951C450.241 21.4216 460.164 30.4178 460.164 48.8738ZM389.586 162.207C380.404 163.691 370.295 165.082 354.9 165.917C351.005 166.288 349.335 168.513 349.335 171.481C349.335 174.542 351.561 176.953 354.9 176.767C370.574 175.84 380.961 174.356 391.348 172.687C394.502 172.13 396.171 169.626 396.171 167.122C396.171 164.247 393.853 161.465 389.586 162.207ZM424.922 125.016C403.683 129.747 381.981 133.549 354.9 135.311C351.005 135.589 349.335 137.908 349.335 140.783C349.335 143.843 351.561 146.255 354.9 146.069C381.981 144.307 403.683 140.505 425.942 135.589C430.393 134.662 431.414 132.436 431.414 129.747C431.414 126.778 429.188 124.182 424.922 125.016ZM424.922 94.2254C403.683 98.9555 381.981 102.758 354.9 104.52C351.005 104.798 349.335 107.117 349.335 109.992C349.335 113.053 351.561 115.464 354.9 115.278C381.981 113.516 403.683 109.714 425.942 104.798C430.393 103.871 431.414 101.645 431.414 98.9555C431.414 95.9874 429.188 93.3909 424.922 94.2254ZM424.922 63.5273C403.683 68.1645 381.981 71.967 354.9 73.7292C351.005 74.0074 349.335 76.3261 349.335 79.2936C349.335 82.3542 351.561 84.6727 354.9 84.4872C381.981 82.7252 403.683 79.0157 425.942 74.0074C430.393 73.08 431.414 70.8541 431.414 68.1645C431.414 65.1967 429.188 62.5999 424.922 63.5273Z" fill="#2268A2"/>
</g>
<defs>
<clipPath id="clip0_53_231">
<rect width="193" height="232.062" fill="white" transform="translate(307.971 12)"/>
</clipPath>
</defs>
</svg>
