<svg width="256" height="256" viewBox="0 0 256 256" fill="none" xmlns="http://www.w3.org/2000/svg">
<rect width="256" height="256" fill="white"/>
<g clip-path="url(#clip0_52_50)">
<path d="M212.387 67.3161V205.19C212.387 224.568 202.742 234.211 183.636 234.211H118.823C134.614 232.001 151.022 228.724 169.353 223.64C188.181 218.263 196.806 206.209 196.806 184.606V48.8649C196.806 45.7191 196.566 42.7511 196.076 39.9941C206.925 43.6117 212.387 52.7337 212.387 67.3161Z" fill="#222934"/>
<path d="M44.6133 202.314C44.6133 218.447 54.6296 226.792 71.7872 225.772C102.949 224.103 130.494 221.229 165.922 211.493C179.092 207.784 184.193 200.83 184.193 184.604V48.8634C184.193 30.4123 174.269 21.4186 156.462 25.5909C130.494 31.4322 102.949 36.0682 69.5614 38.0153C54.5369 38.9425 44.6133 47.4727 44.6133 64.2549V202.314ZM59.5451 199.625V63.8839C59.5451 56.0955 64.3677 53.0358 71.3235 52.6649C103.227 50.996 130.216 46.36 155.628 40.6114C164.253 38.6643 169.261 43.1148 169.261 51.4596V184.048C169.261 192.578 166.386 196.38 159.245 198.234C130.216 206.301 103.227 209.267 72.4364 210.844C64.3677 211.214 59.5451 207.135 59.5451 199.625Z" fill="#222934"/>
<path d="M79.9485 85.4881C106.195 83.8189 127.341 80.2028 148.95 75.3815C153.216 74.4542 154.236 72.3217 154.236 69.7256C154.236 66.8513 152.011 64.3478 147.929 65.1823C127.341 69.7256 106.195 73.4343 79.9485 75.1033C76.2387 75.3815 74.5693 77.607 74.5693 80.4813C74.5693 83.448 76.7952 85.6735 79.9485 85.4881ZM79.9485 115.344C106.195 113.675 127.341 109.966 148.95 105.237C153.216 104.31 154.236 102.177 154.236 99.581C154.236 96.7067 152.011 94.2033 147.929 95.0382C127.341 99.581 106.195 103.29 79.9485 104.959C76.2387 105.237 74.5693 107.462 74.5693 110.244C74.5693 113.211 76.7952 115.529 79.9485 115.344ZM79.9485 145.199C106.195 143.53 127.341 139.822 148.95 135.093C153.216 134.165 154.236 132.033 154.236 129.437C154.236 126.562 152.011 124.059 147.929 124.894C127.341 129.437 106.195 133.146 79.9485 134.814C76.2387 135.093 74.5693 137.318 74.5693 140.099C74.5693 143.066 76.7952 145.385 79.9485 145.199ZM79.9485 174.962C95.1585 174.128 105.268 172.644 115.284 171.068C118.344 170.511 120.014 168.101 120.014 165.69C120.014 162.908 117.788 160.219 113.614 160.961C104.711 162.352 94.8803 163.743 79.9485 164.577C76.2387 164.855 74.5693 167.081 74.5693 169.862C74.5693 172.829 76.7952 175.147 79.9485 174.962Z" fill="#222934"/>
</g>
<defs>
<clipPath id="clip0_52_50">
<rect width="193" height="232" fill="white" transform="translate(32 12)"/>
</clipPath>
</defs>
</svg>
