<svg width="305" height="305" viewBox="0 0 305 305" fill="none" xmlns="http://www.w3.org/2000/svg">
<path d="M80 153.148C80 156.811 81.3184 160.033 84.1016 162.816L200.264 276.342C202.754 278.979 205.977 280.297 209.785 280.297C217.402 280.297 223.262 274.584 223.262 266.967C223.262 263.158 221.65 259.936 219.307 257.445L112.666 153.148L219.307 48.8516C221.65 46.3613 223.262 42.9922 223.262 39.3301C223.262 31.7129 217.402 26 209.785 26C205.977 26 202.754 27.3184 200.264 29.8086L84.1016 143.48C81.3184 146.117 80 149.486 80 153.148Z" fill="#222934"/>
</svg>
